<svg width="75" height="75" viewBox="0 0 75 75" fill="none" xmlns="http://www.w3.org/2000/svg">
<path fill-rule="evenodd" clip-rule="evenodd" d="M37.9979 6.1835C46.2971 6.1835 53.8536 9.3638 59.5179 14.5707C56.7416 14.4963 53.971 16.1466 53.8564 19.9257C53.6229 27.5656 62.9919 29.193 57.9435 44.5601L53.7676 57.2713L42.3945 23.7693C42.2183 23.2507 42.4231 22.9556 43.0606 22.9556H46.276C46.4431 22.9556 46.5797 22.8129 46.5797 22.6381V20.7337C46.5797 20.559 46.4428 20.4091 46.276 20.4163C40.1869 20.6826 34.1336 20.6844 28.1168 20.4163C27.9492 20.4092 27.8131 20.5596 27.8131 20.7344V22.6388C27.8131 22.8134 27.9498 22.9562 28.1168 22.9562H31.3498C32.069 22.9562 32.2703 23.1959 32.4399 23.6594L37.1129 36.4394L30.0833 57.6657L18.5282 23.6308C18.385 23.2039 18.5583 22.956 18.9695 22.956H22.6533C22.8204 22.956 22.957 22.8134 22.957 22.6386V20.7342C22.957 20.5595 22.8199 20.4081 22.6533 20.4168C18.7883 20.6221 14.9084 20.6634 11.2944 20.7005C16.9657 11.9641 26.8062 6.18287 37.996 6.18287L37.9979 6.1835ZM65.9788 22.8485C68.4235 27.3527 69.8116 32.5132 69.8116 37.9965C69.8116 50.0308 63.1251 60.505 53.2669 65.9115L63.1889 37.8088C64.726 33.4596 66.1536 27.5817 65.9788 22.8485ZM48.6491 67.9801C45.3183 69.1648 41.7341 69.8109 37.9979 69.8109C34.779 69.8109 31.6732 69.331 28.745 68.4428L38.5459 40.3559L48.6489 67.9815L48.6491 67.9801ZM24.3843 66.7567C13.6255 61.6543 6.18351 50.6933 6.18351 37.9979C6.18351 33.2917 7.20729 28.8241 9.04219 24.8046L24.3843 66.7567ZM37.9969 3.19804C57.2119 3.19804 72.7954 18.7815 72.7954 37.9965C72.7954 57.2115 57.2119 72.795 37.9969 72.795C18.7819 72.795 3.19847 57.2115 3.19847 37.9965C3.19847 18.7815 18.7819 3.19804 37.9969 3.19804ZM37.9969 0.998474C58.4268 0.998474 74.9958 17.5675 74.9958 37.9974C74.9958 58.4272 58.4268 74.9962 37.9969 74.9962C17.5671 74.9962 0.998047 58.4272 0.998047 37.9974C0.998047 17.5675 17.5671 0.998474 37.9969 0.998474Z" fill="#3AC8E8"/>
</svg>
